<?xml version="1.0" standalone="no"?>
<!DOCTYPE svg PUBLIC "-//W3C//DTD SVG 20010904//EN"
 "http://www.w3.org/TR/2001/REC-SVG-20010904/DTD/svg10.dtd">
<svg version="1.0" xmlns="http://www.w3.org/2000/svg"
 width="666.000000pt" height="116.000000pt" viewBox="0 0 666.000000 116.000000"
 preserveAspectRatio="xMidYMid meet">

<g transform="translate(0.000000,116.000000) scale(0.100000,-0.100000)"
fill="#000000" stroke="none">
<path d="M0 580 l0 -580 3330 0 3330 0 0 580 0 580 -3330 0 -3330 0 0 -580z
m5598 401 c2 -85 -1 -117 -10 -123 -7 -4 -156 -8 -330 -8 l-318 0 0 -80 0 -80
228 -2 227 -3 0 -115 0 -115 -227 -3 -228 -2 0 -80 0 -80 314 0 c173 0 321 -3
330 -6 13 -5 16 -26 16 -125 l0 -119 -455 0 -455 0 0 530 0 530 453 -2 452 -3
3 -114z m377 93 c6 -12 17 -29 24 -38 7 -9 10 -16 5 -16 -5 0 -2 -5 6 -10 13
-9 13 -10 0 -11 -10 0 -8 -3 5 -9 l20 -9 -20 -1 c-17 -2 -16 -3 5 -10 23 -7
23 -8 3 -9 -15 -1 -30 13 -52 49 l-31 50 -95 0 c-52 0 -95 -2 -95 -5 0 -3 52
-90 115 -193 63 -103 116 -191 117 -197 1 -5 8 -16 15 -23 7 -8 11 -18 8 -23
-4 -5 0 -9 7 -9 10 0 10 -2 -1 -9 -11 -7 -9 -10 10 -14 l24 -4 -25 -2 c-22 -1
-42 27 -178 246 -84 135 -151 252 -148 260 5 11 33 13 138 11 124 -3 133 -4
143 -24z m-5361 -71 c122 -375 296 -923 296 -932 0 -7 -34 -11 -104 -11 l-105
0 -22 70 -23 70 -177 0 -176 0 -19 -67 -20 -68 -107 -3 c-66 -2 -107 1 -107 7
0 6 72 233 160 506 88 273 160 498 160 501 0 2 49 4 109 4 l109 0 26 -77z
m1966 -23 l0 -100 -335 0 -335 0 0 -105 0 -105 235 0 235 0 0 -100 0 -100
-235 0 -235 0 0 -105 0 -105 335 0 335 0 0 -100 0 -100 -765 0 -765 0 0 110 0
110 133 0 c217 0 318 30 408 120 152 152 156 388 10 552 -48 54 -142 105 -217
117 -29 5 211 9 574 10 l622 1 0 -100z m462 -50 c49 -80 93 -149 98 -153 4 -5
51 61 105 147 l96 156 121 0 120 0 -14 -22 c-64 -97 -298 -482 -298 -489 0 -7
233 -388 298 -486 l14 -23 -120 0 -120 0 -88 143 c-48 78 -93 148 -99 155 -10
11 -30 -15 -100 -130 -49 -79 -93 -149 -100 -156 -8 -9 -43 -12 -127 -10
l-116 3 154 248 c85 136 154 252 154 257 0 7 -225 375 -298 488 l-15 23 123
-3 123 -3 89 -145z m1015 -25 c58 -93 148 -240 201 -325 52 -85 101 -162 108
-170 12 -12 14 38 14 328 l0 342 100 0 100 0 0 -510 0 -511 -121 3 -121 3
-204 329 c-112 181 -208 334 -214 340 -7 7 -10 -97 -10 -332 l0 -342 -100 0
-100 0 0 510 0 511 121 -3 121 -3 105 -170z m1980 39 c-3 -3 -12 -4 -19 -1 -8
3 -5 6 6 6 11 1 17 -2 13 -5z m-4634 -92 c52 -26 94 -84 103 -144 13 -76 -33
-161 -107 -198 -33 -17 -59 -20 -194 -20 l-155 0 0 196 0 196 153 -4 c135 -3
157 -6 200 -26z m4617 -290 c-23 -4 -24 -5 -5 -13 l20 -8 -20 0 c-17 -1 -17
-3 -5 -11 10 -6 11 -10 3 -10 -7 0 -13 -7 -13 -16 0 -9 -5 -12 -12 -8 -7 4 -8
3 -4 -4 4 -6 -47 -99 -114 -207 -66 -107 -120 -197 -120 -200 0 -3 43 -5 95
-5 l95 0 28 45 c21 35 32 45 52 44 l25 -2 -24 -4 c-19 -4 -21 -7 -10 -14 11
-7 11 -9 1 -9 -7 0 -11 -4 -7 -9 3 -5 0 -15 -7 -23 -7 -7 -14 -20 -16 -28 -8
-36 -23 -40 -154 -40 -101 0 -130 3 -134 14 -4 11 265 459 286 476 4 3 9 13
13 23 4 10 16 16 29 16 22 -2 22 -2 -2 -7z m17 -378 c-3 -3 -12 -4 -19 -1 -8
3 -5 6 6 6 11 1 17 -2 13 -5z"/>
<path d="M4730 570 l0 -490 415 0 415 0 0 85 0 85 -332 2 -333 3 -3 95 c-2 52
0 105 3 118 l5 22 230 0 230 0 0 80 0 80 -230 0 -230 0 -5 23 c-3 12 -5 65 -3
117 l3 95 333 3 332 2 0 85 0 85 -415 0 -415 0 0 -490z"/>
<path d="M473 710 c-30 -75 -96 -290 -91 -295 3 -3 50 -4 105 -3 l99 3 -52
160 c-45 140 -53 157 -61 135z"/>
</g>
</svg>
